<svg xmlns="http://www.w3.org/2000/svg" width="448" height="448" viewBox="0 0 448 448">
<rect width="448" height="448" fill="#69a6b7"/>
<rect y="248" width="448" height="200" fill="#68825b"/>
<polygon points="0,447 448,447 342,306 116,306" fill="#495158"/>
<rect x="45" y="119" width="74" height="203" fill="#c95b4b"/><polygon points="38,119 82,79 126,119" fill="#c95b4b"/>
<rect x="300" y="137" width="74" height="185" fill="#e0a948"/><polygon points="293,137 337,97 381,137" fill="#e0a948"/>
<rect x="143" y="215" width="147" height="109" fill="#97a5a2"/><polygon points="135,215 216,174 297,215" fill="#97a5a2"/><rect x="191" y="260" width="46" height="64" fill="#3d494c"/>
<g fill="#e1d3ba"><rect x="45" y="136" width="74" height="8"/><rect x="45" y="161" width="74" height="8"/><rect x="45" y="186" width="74" height="8"/><rect x="45" y="211" width="74" height="8"/><rect x="45" y="236" width="74" height="8"/><rect x="45" y="261" width="74" height="8"/><rect x="45" y="286" width="74" height="8"/><rect x="143" y="228" width="147" height="8"/><rect x="143" y="253" width="147" height="8"/><rect x="143" y="278" width="147" height="8"/><rect x="143" y="303" width="147" height="8"/></g>
<g fill="#345768"><rect x="58" y="154" width="16" height="28"/><rect x="91" y="154" width="16" height="28"/><rect x="58" y="224" width="16" height="28"/><rect x="91" y="224" width="16" height="28"/></g>
<g fill="#415665"><rect x="313" y="165" width="16" height="28"/><rect x="346" y="165" width="16" height="28"/><rect x="313" y="231" width="16" height="28"/><rect x="346" y="231" width="16" height="28"/></g>
<rect x="393" y="236" width="13" height="95" fill="#485239"/><ellipse cx="398" cy="229" rx="38" ry="49" fill="#37754b"/><ellipse cx="399" cy="190" rx="27" ry="39" fill="#428655"/>
<rect x="263" y="334" width="90" height="42" fill="#49b4ca"/><polygon points="276,334 291,314 329,314 344,334" fill="#49b4ca"/><rect x="288" y="319" width="22" height="16" fill="#274855"/><rect x="313" y="319" width="19" height="16" fill="#274855"/><circle cx="286" cy="374" r="11" fill="#191f22"/><circle cx="337" cy="374" r="11" fill="#191f22"/>
<rect x="327" y="319" width="17" height="75" fill="#e26647"/><rect x="309" y="319" width="53" height="13" fill="#e26647"/>
<g fill="#dccf93"><polygon points="44,409 82,409 95,419 54,419"/><polygon points="130,409 168,409 181,419 140,419"/><polygon points="216,409 254,409 267,419 226,419"/><polygon points="302,409 340,409 353,419 312,419"/></g>
</svg>
